<?xml version="1.0" standalone="no"?>
<!DOCTYPE svg PUBLIC "-//W3C//DTD SVG 20010904//EN"
 "http://www.w3.org/TR/2001/REC-SVG-20010904/DTD/svg10.dtd">
<svg version="1.0" xmlns="http://www.w3.org/2000/svg"
 width="1200.000000pt" height="1200.000000pt" viewBox="0 0 1200.000000 1200.000000"
 preserveAspectRatio="xMidYMid meet">
<metadata>
Created by potrace 1.11, written by Peter Selinger 2001-2013
</metadata>
<g transform="translate(0.000000,1200.000000) scale(0.100000,-0.100000)"
fill="#000000" stroke="none">
<path d="M5150 11395 c-1696 -224 -3169 -1055 -4130 -2330 -208 -277 -355
-516 -515 -840 -247 -500 -394 -969 -477 -1528 -22 -144 -23 -181 -23 -687 0
-506 1 -543 23 -687 83 -559 230 -1028 477 -1528 231 -467 517 -885 853 -1246
44 -48 88 -104 98 -124 22 -48 75 -101 117 -119 18 -7 73 -51 122 -97 865
-806 2011 -1355 3240 -1553 373 -60 474 -66 1060 -66 586 0 687 6 1060 66
1590 256 2998 1082 3915 2299 208 277 355 516 515 840 281 568 437 1111 500
1734 21 210 21 752 0 962 -48 475 -154 912 -329 1359 -73 185 -261 566 -364
737 -447 741 -1040 1351 -1787 1838 -803 524 -1715 853 -2704 975 -151 18
-219 20 -820 19 -625 -1 -664 -2 -831 -24z"/>
</g>
</svg>
